<mxfile host="app.diagrams.net" modified="2023-09-28T09:55:56.540Z" agent="Mozilla/5.0 (Windows NT 10.0; Win64; x64) AppleWebKit/537.36 (KHTML, like Gecko) Chrome/116.0.0.0 Safari/537.36" etag="Zg-8pDt2HxJSOdlPK06m" version="21.7.4" type="github">
  <diagram name="第 1 页" id="bikJFkHqPia4WHgkiH0g">
    <mxGraphModel dx="1434" dy="750" grid="0" gridSize="10" guides="1" tooltips="1" connect="1" arrows="1" fold="1" page="1" pageScale="1" pageWidth="3300" pageHeight="4681" background="#E6E6E6" math="0" shadow="0">
      <root>
        <mxCell id="0" />
        <mxCell id="1" parent="0" />
        <mxCell id="T4SQX62HLSEemlkJclcz-105" style="edgeStyle=orthogonalEdgeStyle;rounded=0;orthogonalLoop=1;jettySize=auto;html=1;exitX=0;exitY=0.5;exitDx=0;exitDy=0;entryX=1;entryY=0.5;entryDx=0;entryDy=0;" edge="1" parent="1" source="T4SQX62HLSEemlkJclcz-1" target="T4SQX62HLSEemlkJclcz-3">
          <mxGeometry relative="1" as="geometry" />
        </mxCell>
        <mxCell id="T4SQX62HLSEemlkJclcz-1" value="&lt;font face=&quot;Comic Sans MS&quot;&gt;开始&lt;/font&gt;" style="ellipse;whiteSpace=wrap;html=1;strokeWidth=2;fillWeight=2;hachureGap=8;fillColor=#e1d5e7;fillStyle=dots;sketch=1;strokeColor=#9673a6;" vertex="1" parent="1">
          <mxGeometry x="1236" y="678.5" width="86" height="39" as="geometry" />
        </mxCell>
        <mxCell id="T4SQX62HLSEemlkJclcz-2" value="&lt;font face=&quot;Comic Sans MS&quot;&gt;结束&lt;/font&gt;" style="ellipse;whiteSpace=wrap;html=1;strokeWidth=2;fillWeight=2;hachureGap=8;fillColor=#e1d5e7;fillStyle=dots;sketch=1;strokeColor=#9673a6;" vertex="1" parent="1">
          <mxGeometry x="909" y="1172" width="86" height="39" as="geometry" />
        </mxCell>
        <mxCell id="T4SQX62HLSEemlkJclcz-12" value="" style="edgeStyle=orthogonalEdgeStyle;rounded=0;orthogonalLoop=1;jettySize=auto;html=1;" edge="1" parent="1" source="T4SQX62HLSEemlkJclcz-3" target="T4SQX62HLSEemlkJclcz-11">
          <mxGeometry relative="1" as="geometry" />
        </mxCell>
        <mxCell id="T4SQX62HLSEemlkJclcz-106" style="edgeStyle=orthogonalEdgeStyle;rounded=0;orthogonalLoop=1;jettySize=auto;html=1;exitX=0.5;exitY=0;exitDx=0;exitDy=0;entryX=0.5;entryY=1;entryDx=0;entryDy=0;" edge="1" parent="1" source="T4SQX62HLSEemlkJclcz-3" target="T4SQX62HLSEemlkJclcz-6">
          <mxGeometry relative="1" as="geometry" />
        </mxCell>
        <mxCell id="T4SQX62HLSEemlkJclcz-107" value="是" style="edgeLabel;html=1;align=center;verticalAlign=middle;resizable=0;points=[];" vertex="1" connectable="0" parent="T4SQX62HLSEemlkJclcz-106">
          <mxGeometry x="-0.0328" relative="1" as="geometry">
            <mxPoint x="1" as="offset" />
          </mxGeometry>
        </mxCell>
        <mxCell id="T4SQX62HLSEemlkJclcz-3" value="&lt;font face=&quot;Comic Sans MS&quot;&gt;table是否为空或者长度是否为0&lt;/font&gt;" style="rhombus;whiteSpace=wrap;html=1;sketch=1;curveFitting=1;jiggle=2;fillColor=#e1d5e7;strokeColor=#9673a6;strokeWidth=2;" vertex="1" parent="1">
          <mxGeometry x="1075" y="656.5" width="113" height="83" as="geometry" />
        </mxCell>
        <mxCell id="T4SQX62HLSEemlkJclcz-108" style="edgeStyle=orthogonalEdgeStyle;rounded=0;orthogonalLoop=1;jettySize=auto;html=1;exitX=0;exitY=0.5;exitDx=0;exitDy=0;entryX=1;entryY=0.5;entryDx=0;entryDy=0;" edge="1" parent="1" source="T4SQX62HLSEemlkJclcz-6" target="T4SQX62HLSEemlkJclcz-11">
          <mxGeometry relative="1" as="geometry" />
        </mxCell>
        <mxCell id="T4SQX62HLSEemlkJclcz-6" value="&lt;font face=&quot;Comic Sans MS&quot;&gt;resize()扩容&lt;/font&gt;" style="whiteSpace=wrap;html=1;fillColor=#e1d5e7;strokeColor=#9673a6;strokeWidth=2;fillWeight=2;hachureGap=8;fillStyle=dots;sketch=1;" vertex="1" parent="1">
          <mxGeometry x="1085.5" y="570" width="92" height="39.5" as="geometry" />
        </mxCell>
        <mxCell id="T4SQX62HLSEemlkJclcz-14" value="" style="edgeStyle=orthogonalEdgeStyle;rounded=0;orthogonalLoop=1;jettySize=auto;html=1;" edge="1" parent="1" source="T4SQX62HLSEemlkJclcz-11" target="T4SQX62HLSEemlkJclcz-13">
          <mxGeometry relative="1" as="geometry" />
        </mxCell>
        <mxCell id="T4SQX62HLSEemlkJclcz-15" value="&lt;font face=&quot;Comic Sans MS&quot;&gt;对应位置为null&lt;/font&gt;" style="edgeLabel;html=1;align=center;verticalAlign=middle;resizable=0;points=[];" vertex="1" connectable="0" parent="T4SQX62HLSEemlkJclcz-14">
          <mxGeometry x="-0.1999" y="-1" relative="1" as="geometry">
            <mxPoint as="offset" />
          </mxGeometry>
        </mxCell>
        <mxCell id="T4SQX62HLSEemlkJclcz-17" value="" style="edgeStyle=orthogonalEdgeStyle;rounded=0;orthogonalLoop=1;jettySize=auto;html=1;" edge="1" parent="1" source="T4SQX62HLSEemlkJclcz-11" target="T4SQX62HLSEemlkJclcz-16">
          <mxGeometry relative="1" as="geometry" />
        </mxCell>
        <mxCell id="T4SQX62HLSEemlkJclcz-18" value="对应位置有值" style="edgeLabel;html=1;align=center;verticalAlign=middle;resizable=0;points=[];" vertex="1" connectable="0" parent="T4SQX62HLSEemlkJclcz-17">
          <mxGeometry x="-0.0732" y="-1" relative="1" as="geometry">
            <mxPoint y="1" as="offset" />
          </mxGeometry>
        </mxCell>
        <mxCell id="T4SQX62HLSEemlkJclcz-11" value="&lt;font face=&quot;Comic Sans MS&quot;&gt;根据hash和数组长度计算下标&lt;/font&gt;" style="rhombus;whiteSpace=wrap;html=1;fillColor=#e1d5e7;strokeColor=#9673a6;sketch=1;curveFitting=1;jiggle=2;strokeWidth=2;" vertex="1" parent="1">
          <mxGeometry x="895" y="656.5" width="113.5" height="83" as="geometry" />
        </mxCell>
        <mxCell id="T4SQX62HLSEemlkJclcz-50" style="edgeStyle=orthogonalEdgeStyle;rounded=0;orthogonalLoop=1;jettySize=auto;html=1;exitX=0.5;exitY=1;exitDx=0;exitDy=0;entryX=0.5;entryY=0;entryDx=0;entryDy=0;" edge="1" parent="1" source="T4SQX62HLSEemlkJclcz-13" target="T4SQX62HLSEemlkJclcz-25">
          <mxGeometry relative="1" as="geometry" />
        </mxCell>
        <mxCell id="T4SQX62HLSEemlkJclcz-13" value="直接插入" style="whiteSpace=wrap;html=1;fillColor=#e1d5e7;strokeColor=#9673a6;sketch=1;curveFitting=1;jiggle=2;strokeWidth=2;" vertex="1" parent="1">
          <mxGeometry x="899.25" y="892.5" width="105" height="42.5" as="geometry" />
        </mxCell>
        <mxCell id="T4SQX62HLSEemlkJclcz-20" style="edgeStyle=orthogonalEdgeStyle;rounded=0;orthogonalLoop=1;jettySize=auto;html=1;exitX=0.5;exitY=1;exitDx=0;exitDy=0;entryX=0.5;entryY=0;entryDx=0;entryDy=0;" edge="1" parent="1" source="T4SQX62HLSEemlkJclcz-16" target="T4SQX62HLSEemlkJclcz-19">
          <mxGeometry relative="1" as="geometry" />
        </mxCell>
        <mxCell id="T4SQX62HLSEemlkJclcz-60" value="&lt;font face=&quot;Comic Sans MS&quot;&gt;是&lt;/font&gt;" style="edgeLabel;html=1;align=center;verticalAlign=middle;resizable=0;points=[];" vertex="1" connectable="0" parent="T4SQX62HLSEemlkJclcz-20">
          <mxGeometry x="-0.1569" y="1" relative="1" as="geometry">
            <mxPoint as="offset" />
          </mxGeometry>
        </mxCell>
        <mxCell id="T4SQX62HLSEemlkJclcz-35" value="" style="edgeStyle=orthogonalEdgeStyle;rounded=0;orthogonalLoop=1;jettySize=auto;html=1;" edge="1" parent="1" source="T4SQX62HLSEemlkJclcz-16" target="T4SQX62HLSEemlkJclcz-34">
          <mxGeometry relative="1" as="geometry" />
        </mxCell>
        <mxCell id="T4SQX62HLSEemlkJclcz-61" value="&lt;font face=&quot;Comic Sans MS&quot;&gt;否&lt;/font&gt;" style="edgeLabel;html=1;align=center;verticalAlign=middle;resizable=0;points=[];" vertex="1" connectable="0" parent="T4SQX62HLSEemlkJclcz-35">
          <mxGeometry x="-0.0293" y="-1" relative="1" as="geometry">
            <mxPoint as="offset" />
          </mxGeometry>
        </mxCell>
        <mxCell id="T4SQX62HLSEemlkJclcz-16" value="&lt;font face=&quot;Comic Sans MS&quot;&gt;key存在&lt;/font&gt;" style="rhombus;whiteSpace=wrap;html=1;fillColor=#e1d5e7;strokeColor=#9673a6;sketch=1;curveFitting=1;jiggle=2;strokeWidth=2;" vertex="1" parent="1">
          <mxGeometry x="679" y="656.5" width="113.5" height="83" as="geometry" />
        </mxCell>
        <mxCell id="T4SQX62HLSEemlkJclcz-48" style="edgeStyle=orthogonalEdgeStyle;rounded=0;orthogonalLoop=1;jettySize=auto;html=1;exitX=0.5;exitY=1;exitDx=0;exitDy=0;entryX=0;entryY=0.5;entryDx=0;entryDy=0;fillColor=#a0522d;strokeColor=#00331A;" edge="1" parent="1" source="T4SQX62HLSEemlkJclcz-19" target="T4SQX62HLSEemlkJclcz-2">
          <mxGeometry relative="1" as="geometry" />
        </mxCell>
        <mxCell id="T4SQX62HLSEemlkJclcz-19" value="如果onlyIfAbsent为false或者value为null，则覆盖" style="whiteSpace=wrap;html=1;fillColor=#e1d5e7;strokeColor=#9673a6;sketch=1;curveFitting=1;jiggle=2;strokeWidth=2;" vertex="1" parent="1">
          <mxGeometry x="683.25" y="945.25" width="105" height="42.5" as="geometry" />
        </mxCell>
        <mxCell id="T4SQX62HLSEemlkJclcz-57" style="edgeStyle=orthogonalEdgeStyle;rounded=0;orthogonalLoop=1;jettySize=auto;html=1;exitX=0.5;exitY=1;exitDx=0;exitDy=0;" edge="1" parent="1" source="T4SQX62HLSEemlkJclcz-25" target="T4SQX62HLSEemlkJclcz-2">
          <mxGeometry relative="1" as="geometry" />
        </mxCell>
        <mxCell id="T4SQX62HLSEemlkJclcz-58" value="否" style="edgeLabel;html=1;align=center;verticalAlign=middle;resizable=0;points=[];" vertex="1" connectable="0" parent="T4SQX62HLSEemlkJclcz-57">
          <mxGeometry x="-0.1751" relative="1" as="geometry">
            <mxPoint as="offset" />
          </mxGeometry>
        </mxCell>
        <mxCell id="T4SQX62HLSEemlkJclcz-94" style="edgeStyle=orthogonalEdgeStyle;rounded=0;orthogonalLoop=1;jettySize=auto;html=1;exitX=0;exitY=0.5;exitDx=0;exitDy=0;entryX=1;entryY=0.5;entryDx=0;entryDy=0;" edge="1" parent="1" source="T4SQX62HLSEemlkJclcz-25" target="T4SQX62HLSEemlkJclcz-92">
          <mxGeometry relative="1" as="geometry" />
        </mxCell>
        <mxCell id="T4SQX62HLSEemlkJclcz-95" value="是" style="edgeLabel;html=1;align=center;verticalAlign=middle;resizable=0;points=[];" vertex="1" connectable="0" parent="T4SQX62HLSEemlkJclcz-94">
          <mxGeometry x="-0.3033" relative="1" as="geometry">
            <mxPoint as="offset" />
          </mxGeometry>
        </mxCell>
        <mxCell id="T4SQX62HLSEemlkJclcz-25" value="&lt;font face=&quot;Comic Sans MS&quot;&gt;++size &amp;gt; threshold&lt;/font&gt;" style="rhombus;whiteSpace=wrap;html=1;sketch=1;curveFitting=1;jiggle=2;fillColor=#e1d5e7;strokeColor=#9673a6;strokeWidth=2;" vertex="1" parent="1">
          <mxGeometry x="895.5" y="1041" width="113" height="83" as="geometry" />
        </mxCell>
        <mxCell id="T4SQX62HLSEemlkJclcz-64" style="edgeStyle=orthogonalEdgeStyle;rounded=0;orthogonalLoop=1;jettySize=auto;html=1;exitX=0;exitY=0.5;exitDx=0;exitDy=0;entryX=1;entryY=0.5;entryDx=0;entryDy=0;" edge="1" parent="1" source="T4SQX62HLSEemlkJclcz-34" target="T4SQX62HLSEemlkJclcz-63">
          <mxGeometry relative="1" as="geometry" />
        </mxCell>
        <mxCell id="T4SQX62HLSEemlkJclcz-65" value="是" style="edgeLabel;html=1;align=center;verticalAlign=middle;resizable=0;points=[];" vertex="1" connectable="0" parent="T4SQX62HLSEemlkJclcz-64">
          <mxGeometry y="2" relative="1" as="geometry">
            <mxPoint as="offset" />
          </mxGeometry>
        </mxCell>
        <mxCell id="T4SQX62HLSEemlkJclcz-76" style="edgeStyle=orthogonalEdgeStyle;rounded=0;orthogonalLoop=1;jettySize=auto;html=1;exitX=0.5;exitY=1;exitDx=0;exitDy=0;entryX=0.5;entryY=0;entryDx=0;entryDy=0;" edge="1" parent="1" source="T4SQX62HLSEemlkJclcz-34" target="T4SQX62HLSEemlkJclcz-70">
          <mxGeometry relative="1" as="geometry" />
        </mxCell>
        <mxCell id="T4SQX62HLSEemlkJclcz-78" value="否" style="edgeLabel;html=1;align=center;verticalAlign=middle;resizable=0;points=[];" vertex="1" connectable="0" parent="T4SQX62HLSEemlkJclcz-76">
          <mxGeometry x="-0.6508" relative="1" as="geometry">
            <mxPoint y="1" as="offset" />
          </mxGeometry>
        </mxCell>
        <mxCell id="T4SQX62HLSEemlkJclcz-34" value="&lt;font face=&quot;Comic Sans MS&quot;&gt;tab[i]是否为树节点&lt;/font&gt;" style="rhombus;whiteSpace=wrap;html=1;fillColor=#e1d5e7;strokeColor=#9673a6;sketch=1;curveFitting=1;jiggle=2;strokeWidth=2;" vertex="1" parent="1">
          <mxGeometry x="446" y="656.5" width="113.5" height="83" as="geometry" />
        </mxCell>
        <mxCell id="T4SQX62HLSEemlkJclcz-46" style="edgeStyle=orthogonalEdgeStyle;rounded=0;orthogonalLoop=1;jettySize=auto;html=1;exitX=1;exitY=0.5;exitDx=0;exitDy=0;entryX=0;entryY=0.5;entryDx=0;entryDy=0;" edge="1" parent="1" source="T4SQX62HLSEemlkJclcz-38" target="T4SQX62HLSEemlkJclcz-19">
          <mxGeometry relative="1" as="geometry" />
        </mxCell>
        <mxCell id="T4SQX62HLSEemlkJclcz-47" value="是" style="edgeLabel;html=1;align=center;verticalAlign=middle;resizable=0;points=[];" vertex="1" connectable="0" parent="T4SQX62HLSEemlkJclcz-46">
          <mxGeometry x="-0.0476" y="1" relative="1" as="geometry">
            <mxPoint as="offset" />
          </mxGeometry>
        </mxCell>
        <mxCell id="T4SQX62HLSEemlkJclcz-38" value="&lt;font face=&quot;Comic Sans MS&quot;&gt;key存在&lt;/font&gt;" style="rhombus;whiteSpace=wrap;html=1;fillColor=#e1d5e7;strokeColor=#9673a6;sketch=1;curveFitting=1;jiggle=2;strokeWidth=2;" vertex="1" parent="1">
          <mxGeometry x="446" y="925" width="113.5" height="83" as="geometry" />
        </mxCell>
        <mxCell id="T4SQX62HLSEemlkJclcz-88" style="edgeStyle=orthogonalEdgeStyle;rounded=0;orthogonalLoop=1;jettySize=auto;html=1;exitX=0.5;exitY=1;exitDx=0;exitDy=0;entryX=0.5;entryY=0;entryDx=0;entryDy=0;" edge="1" parent="1" source="T4SQX62HLSEemlkJclcz-42" target="T4SQX62HLSEemlkJclcz-66">
          <mxGeometry relative="1" as="geometry" />
        </mxCell>
        <mxCell id="T4SQX62HLSEemlkJclcz-42" value="插入链表尾部" style="whiteSpace=wrap;html=1;fillColor=#e1d5e7;strokeColor=#9673a6;sketch=1;curveFitting=1;jiggle=2;strokeWidth=2;" vertex="1" parent="1">
          <mxGeometry x="253" y="803.25" width="105" height="42.5" as="geometry" />
        </mxCell>
        <mxCell id="T4SQX62HLSEemlkJclcz-109" style="edgeStyle=orthogonalEdgeStyle;rounded=0;orthogonalLoop=1;jettySize=auto;html=1;exitX=0;exitY=0.5;exitDx=0;exitDy=0;entryX=1;entryY=0.5;entryDx=0;entryDy=0;fillColor=#d80073;strokeColor=#A50040;" edge="1" parent="1" source="T4SQX62HLSEemlkJclcz-63" target="T4SQX62HLSEemlkJclcz-25">
          <mxGeometry relative="1" as="geometry" />
        </mxCell>
        <mxCell id="T4SQX62HLSEemlkJclcz-63" value="插入红黑树" style="whiteSpace=wrap;html=1;fillColor=#e1d5e7;strokeColor=#9673a6;sketch=1;curveFitting=1;jiggle=2;strokeWidth=2;" vertex="1" parent="1">
          <mxGeometry x="145.75" y="676.75" width="105" height="42.5" as="geometry" />
        </mxCell>
        <mxCell id="T4SQX62HLSEemlkJclcz-90" style="edgeStyle=orthogonalEdgeStyle;rounded=0;orthogonalLoop=1;jettySize=auto;html=1;exitX=1;exitY=0.5;exitDx=0;exitDy=0;entryX=0;entryY=0.5;entryDx=0;entryDy=0;" edge="1" parent="1" source="T4SQX62HLSEemlkJclcz-66" target="T4SQX62HLSEemlkJclcz-89">
          <mxGeometry relative="1" as="geometry" />
        </mxCell>
        <mxCell id="T4SQX62HLSEemlkJclcz-91" value="是" style="edgeLabel;html=1;align=center;verticalAlign=middle;resizable=0;points=[];" vertex="1" connectable="0" parent="T4SQX62HLSEemlkJclcz-90">
          <mxGeometry x="-0.0453" relative="1" as="geometry">
            <mxPoint y="1" as="offset" />
          </mxGeometry>
        </mxCell>
        <mxCell id="T4SQX62HLSEemlkJclcz-110" style="edgeStyle=orthogonalEdgeStyle;rounded=0;orthogonalLoop=1;jettySize=auto;html=1;exitX=0.5;exitY=1;exitDx=0;exitDy=0;entryX=1;entryY=0.5;entryDx=0;entryDy=0;" edge="1" parent="1" source="T4SQX62HLSEemlkJclcz-66" target="T4SQX62HLSEemlkJclcz-25">
          <mxGeometry relative="1" as="geometry" />
        </mxCell>
        <mxCell id="T4SQX62HLSEemlkJclcz-111" value="否" style="edgeLabel;html=1;align=center;verticalAlign=middle;resizable=0;points=[];" vertex="1" connectable="0" parent="T4SQX62HLSEemlkJclcz-110">
          <mxGeometry x="-0.9478" relative="1" as="geometry">
            <mxPoint as="offset" />
          </mxGeometry>
        </mxCell>
        <mxCell id="T4SQX62HLSEemlkJclcz-66" value="&lt;font face=&quot;Comic Sans MS&quot;&gt;链表长度大于8&lt;/font&gt;" style="rhombus;whiteSpace=wrap;html=1;fillColor=#e1d5e7;strokeColor=#9673a6;sketch=1;curveFitting=1;jiggle=2;strokeWidth=2;" vertex="1" parent="1">
          <mxGeometry x="248.75" y="1041" width="113.5" height="83" as="geometry" />
        </mxCell>
        <mxCell id="T4SQX62HLSEemlkJclcz-84" style="edgeStyle=orthogonalEdgeStyle;rounded=0;orthogonalLoop=1;jettySize=auto;html=1;exitX=0.5;exitY=1;exitDx=0;exitDy=0;entryX=0.5;entryY=0;entryDx=0;entryDy=0;" edge="1" parent="1" source="T4SQX62HLSEemlkJclcz-70" target="T4SQX62HLSEemlkJclcz-38">
          <mxGeometry relative="1" as="geometry" />
        </mxCell>
        <mxCell id="T4SQX62HLSEemlkJclcz-85" value="节点不为空" style="edgeLabel;html=1;align=center;verticalAlign=middle;resizable=0;points=[];" vertex="1" connectable="0" parent="T4SQX62HLSEemlkJclcz-84">
          <mxGeometry x="-0.0219" y="-1" relative="1" as="geometry">
            <mxPoint y="1" as="offset" />
          </mxGeometry>
        </mxCell>
        <mxCell id="T4SQX62HLSEemlkJclcz-102" style="edgeStyle=orthogonalEdgeStyle;rounded=0;orthogonalLoop=1;jettySize=auto;html=1;exitX=0;exitY=0.5;exitDx=0;exitDy=0;entryX=1;entryY=0.5;entryDx=0;entryDy=0;" edge="1" parent="1" source="T4SQX62HLSEemlkJclcz-70" target="T4SQX62HLSEemlkJclcz-42">
          <mxGeometry relative="1" as="geometry" />
        </mxCell>
        <mxCell id="T4SQX62HLSEemlkJclcz-103" value="节点为空" style="edgeLabel;html=1;align=center;verticalAlign=middle;resizable=0;points=[];" vertex="1" connectable="0" parent="T4SQX62HLSEemlkJclcz-102">
          <mxGeometry y="-1" relative="1" as="geometry">
            <mxPoint as="offset" />
          </mxGeometry>
        </mxCell>
        <mxCell id="T4SQX62HLSEemlkJclcz-70" value="&lt;font face=&quot;Comic Sans MS&quot;&gt;遍历链表&lt;/font&gt;" style="rhombus;whiteSpace=wrap;html=1;fillColor=#e1d5e7;strokeColor=#9673a6;sketch=1;curveFitting=1;jiggle=2;strokeWidth=2;" vertex="1" parent="1">
          <mxGeometry x="446" y="783" width="113.5" height="83" as="geometry" />
        </mxCell>
        <mxCell id="T4SQX62HLSEemlkJclcz-99" style="edgeStyle=orthogonalEdgeStyle;rounded=0;orthogonalLoop=1;jettySize=auto;html=1;exitX=0.5;exitY=1;exitDx=0;exitDy=0;entryX=0.5;entryY=0;entryDx=0;entryDy=0;" edge="1" parent="1" source="T4SQX62HLSEemlkJclcz-89" target="T4SQX62HLSEemlkJclcz-98">
          <mxGeometry relative="1" as="geometry" />
        </mxCell>
        <mxCell id="T4SQX62HLSEemlkJclcz-100" value="否" style="edgeLabel;html=1;align=center;verticalAlign=middle;resizable=0;points=[];" vertex="1" connectable="0" parent="T4SQX62HLSEemlkJclcz-99">
          <mxGeometry x="-0.3645" y="-2" relative="1" as="geometry">
            <mxPoint as="offset" />
          </mxGeometry>
        </mxCell>
        <mxCell id="T4SQX62HLSEemlkJclcz-113" style="edgeStyle=orthogonalEdgeStyle;rounded=0;orthogonalLoop=1;jettySize=auto;html=1;exitX=0.5;exitY=0;exitDx=0;exitDy=0;entryX=0;entryY=0.5;entryDx=0;entryDy=0;" edge="1" parent="1" source="T4SQX62HLSEemlkJclcz-89" target="T4SQX62HLSEemlkJclcz-112">
          <mxGeometry relative="1" as="geometry" />
        </mxCell>
        <mxCell id="T4SQX62HLSEemlkJclcz-115" value="是" style="edgeLabel;html=1;align=center;verticalAlign=middle;resizable=0;points=[];" vertex="1" connectable="0" parent="T4SQX62HLSEemlkJclcz-113">
          <mxGeometry x="-0.2037" relative="1" as="geometry">
            <mxPoint as="offset" />
          </mxGeometry>
        </mxCell>
        <mxCell id="T4SQX62HLSEemlkJclcz-89" value="&lt;font face=&quot;Comic Sans MS&quot;&gt;数组长度小于64&lt;/font&gt;" style="rhombus;whiteSpace=wrap;html=1;fillColor=#e1d5e7;strokeColor=#9673a6;sketch=1;curveFitting=1;jiggle=2;strokeWidth=2;" vertex="1" parent="1">
          <mxGeometry x="446" y="1041" width="113.5" height="83" as="geometry" />
        </mxCell>
        <mxCell id="T4SQX62HLSEemlkJclcz-96" style="edgeStyle=orthogonalEdgeStyle;rounded=0;orthogonalLoop=1;jettySize=auto;html=1;exitX=0.5;exitY=1;exitDx=0;exitDy=0;entryX=0;entryY=0.5;entryDx=0;entryDy=0;" edge="1" parent="1" source="T4SQX62HLSEemlkJclcz-92" target="T4SQX62HLSEemlkJclcz-2">
          <mxGeometry relative="1" as="geometry" />
        </mxCell>
        <mxCell id="T4SQX62HLSEemlkJclcz-92" value="&lt;font face=&quot;Comic Sans MS&quot;&gt;resize()扩容&lt;/font&gt;" style="whiteSpace=wrap;html=1;fillColor=#e1d5e7;strokeColor=#9673a6;strokeWidth=2;fillWeight=2;hachureGap=8;fillStyle=dots;sketch=1;" vertex="1" parent="1">
          <mxGeometry x="620" y="1062.75" width="92" height="39.5" as="geometry" />
        </mxCell>
        <mxCell id="T4SQX62HLSEemlkJclcz-101" style="edgeStyle=orthogonalEdgeStyle;rounded=0;orthogonalLoop=1;jettySize=auto;html=1;exitX=0;exitY=0.5;exitDx=0;exitDy=0;entryX=0.5;entryY=1;entryDx=0;entryDy=0;" edge="1" parent="1" source="T4SQX62HLSEemlkJclcz-98" target="T4SQX62HLSEemlkJclcz-63">
          <mxGeometry relative="1" as="geometry" />
        </mxCell>
        <mxCell id="T4SQX62HLSEemlkJclcz-98" value="转为红黑树" style="whiteSpace=wrap;html=1;fillColor=#e1d5e7;strokeColor=#9673a6;sketch=1;curveFitting=1;jiggle=2;strokeWidth=2;" vertex="1" parent="1">
          <mxGeometry x="450.25" y="1161" width="105" height="42.5" as="geometry" />
        </mxCell>
        <mxCell id="T4SQX62HLSEemlkJclcz-114" style="edgeStyle=orthogonalEdgeStyle;rounded=0;orthogonalLoop=1;jettySize=auto;html=1;exitX=1;exitY=0.5;exitDx=0;exitDy=0;entryX=0.5;entryY=0;entryDx=0;entryDy=0;" edge="1" parent="1" source="T4SQX62HLSEemlkJclcz-112" target="T4SQX62HLSEemlkJclcz-25">
          <mxGeometry relative="1" as="geometry" />
        </mxCell>
        <mxCell id="T4SQX62HLSEemlkJclcz-112" value="&lt;font face=&quot;Comic Sans MS&quot;&gt;resize()扩容&lt;/font&gt;" style="whiteSpace=wrap;html=1;fillColor=#e1d5e7;strokeColor=#9673a6;strokeWidth=2;fillWeight=2;hachureGap=8;fillStyle=dots;sketch=1;" vertex="1" parent="1">
          <mxGeometry x="568" y="1001.5" width="92" height="39.5" as="geometry" />
        </mxCell>
      </root>
    </mxGraphModel>
  </diagram>
</mxfile>
